<svg width="20" height="20" viewBox="0 0 20 20" fill="none" xmlns="http://www.w3.org/2000/svg">
<g clip-path="url(#clip0_2207_12288)">
<path d="M1.6665 7.14091C1.6665 6.1441 2.06849 5.5332 2.90036 5.07025L6.32473 3.16455C8.11909 2.16598 9.01625 1.66669 9.99984 1.66669C10.9834 1.66669 11.8806 2.16598 13.6749 3.16455L17.0993 5.07025C17.9312 5.5332 18.3332 6.1441 18.3332 7.14091C18.3332 7.41121 18.3332 7.54636 18.3037 7.65747C18.1486 8.24123 17.6196 8.33335 17.1088 8.33335H2.8909C2.38006 8.33335 1.8511 8.24122 1.69602 7.65747C1.6665 7.54636 1.6665 7.41121 1.6665 7.14091Z" stroke="#1D1D1D" stroke-width="1.5"/>
<path d="M9.99658 5.83331H10.0041" stroke="#1D1D1D" stroke-width="2" stroke-linecap="round" stroke-linejoin="round"/>
<path d="M3.3335 8.33331V15.4166M6.66683 8.33331V15.4166" stroke="#1D1D1D" stroke-width="1.5"/>
<path d="M13.3335 8.33331V15.4166M16.6668 8.33331V15.4166" stroke="#1D1D1D" stroke-width="1.5"/>
<path d="M15.8332 15.4167H4.1665C2.7858 15.4167 1.6665 16.5359 1.6665 17.9167C1.6665 18.1468 1.85305 18.3334 2.08317 18.3334H17.9165C18.1466 18.3334 18.3332 18.1468 18.3332 17.9167C18.3332 16.5359 17.2139 15.4167 15.8332 15.4167Z" stroke="#1D1D1D" stroke-width="1.5"/>
</g>
<defs>
<clipPath id="clip0_2207_12288">
<rect width="20" height="20" fill="white"/>
</clipPath>
</defs>
</svg>
