<svg width="20" height="20" viewBox="0 0 20 20" fill="none" xmlns="http://www.w3.org/2000/svg">
<path d="M1.6665 9.99998C1.6665 7.05208 1.6665 5.57812 2.54384 4.59406C2.68416 4.43667 2.83882 4.2911 3.00605 4.15904C4.05161 3.33331 5.61769 3.33331 8.74984 3.33331H11.2498C14.382 3.33331 15.9481 3.33331 16.9936 4.15904C17.1608 4.2911 17.3155 4.43667 17.4558 4.59406C18.3332 5.57812 18.3332 7.05208 18.3332 9.99998C18.3332 12.9479 18.3332 14.4218 17.4558 15.4059C17.3155 15.5633 17.1608 15.7088 16.9936 15.8409C15.9481 16.6666 14.382 16.6666 11.2498 16.6666H8.74984C5.61769 16.6666 4.05161 16.6666 3.00605 15.8409C2.83882 15.7088 2.68416 15.5633 2.54384 15.4059C1.6665 14.4218 1.6665 12.9479 1.6665 9.99998Z" stroke="#1D1D1D" stroke-width="1.5" stroke-linecap="round" stroke-linejoin="round"/>
<path d="M8.3335 13.3333H9.5835" stroke="#1D1D1D" stroke-width="1.5" stroke-miterlimit="10" stroke-linecap="round" stroke-linejoin="round"/>
<path d="M12.0835 13.3333H15.0002" stroke="#1D1D1D" stroke-width="1.5" stroke-miterlimit="10" stroke-linecap="round" stroke-linejoin="round"/>
<path d="M1.6665 7.5H18.3332" stroke="#1D1D1D" stroke-width="1.5" stroke-linejoin="round"/>
</svg>
